<svg height="2398" width="720" xmlns="http://www.w3.org/2000/svg">
<rect height="2398" fill="#555" width="720"></rect>
<text fill="#7f7" font-family="Courier New" font-size="12" xml:space="preserve">
<tspan x="10" y="26">15 megabytes installed</tspan>
<tspan x="10" y="42"></tspan>
<tspan x="10" y="58">node_modules</tspan>
<tspan x="10" y="74">└─┬ npm-stats@1.2.0 </tspan>
<tspan x="10" y="90">  ├─┬ event-stream@3.0.20 </tspan>
<tspan x="10" y="106">  │ ├── duplexer@0.1.1 </tspan>
<tspan x="10" y="122">  │ ├── from@0.1.7 </tspan>
<tspan x="10" y="138">  │ ├── map-stream@0.0.7 </tspan>
<tspan x="10" y="154">  │ ├── pause-stream@0.0.11 </tspan>
<tspan x="10" y="170">  │ ├── split@0.2.10 </tspan>
<tspan x="10" y="186">  │ └── stream-combiner@0.0.4 </tspan>
<tspan x="10" y="202">  ├─┬ JSONStream@0.6.4 </tspan>
<tspan x="10" y="218">  │ ├── jsonparse@0.0.5 </tspan>
<tspan x="10" y="234">  │ └── through@2.2.7 </tspan>
<tspan x="10" y="250">  ├─┬ lodash.merge@3.3.2 </tspan>
<tspan x="10" y="266">  │ ├── lodash._arraycopy@3.0.0 </tspan>
<tspan x="10" y="282">  │ ├── lodash._arrayeach@3.0.0 </tspan>
<tspan x="10" y="298">  │ ├─┬ lodash._createassigner@3.1.1 </tspan>
<tspan x="10" y="314">  │ │ ├── lodash._bindcallback@3.0.1 </tspan>
<tspan x="10" y="330">  │ │ ├── lodash._isiterateecall@3.0.9 </tspan>
<tspan x="10" y="346">  │ │ └── lodash.restparam@3.6.1 </tspan>
<tspan x="10" y="362">  │ ├── lodash._getnative@3.9.1 </tspan>
<tspan x="10" y="378">  │ ├── lodash.isarguments@3.1.0 </tspan>
<tspan x="10" y="394">  │ ├── lodash.isarray@3.0.4 </tspan>
<tspan x="10" y="410">  │ ├─┬ lodash.isplainobject@3.2.0 </tspan>
<tspan x="10" y="426">  │ │ └── lodash._basefor@3.0.3 </tspan>
<tspan x="10" y="442">  │ ├── lodash.istypedarray@3.0.6 </tspan>
<tspan x="10" y="458">  │ ├── lodash.keys@3.1.2 </tspan>
<tspan x="10" y="474">  │ ├── lodash.keysin@3.0.8 </tspan>
<tspan x="10" y="490">  │ └─┬ lodash.toplainobject@3.0.0 </tspan>
<tspan x="10" y="506">  │   └── lodash._basecopy@3.0.1 </tspan>
<tspan x="10" y="522">  ├─┬ nano@6.2.0 </tspan>
<tspan x="10" y="538">  │ ├─┬ debug@2.6.4 </tspan>
<tspan x="10" y="554">  │ │ └── ms@0.7.3 </tspan>
<tspan x="10" y="570">  │ ├── errs@0.3.2 </tspan>
<tspan x="10" y="586">  │ ├─┬ follow@0.12.1 </tspan>
<tspan x="10" y="602">  │ │ ├── browser-request@0.3.3 </tspan>
<tspan x="10" y="618">  │ │ └─┬ request@2.55.0 </tspan>
<tspan x="10" y="634">  │ │   ├── caseless@0.9.0 </tspan>
<tspan x="10" y="650">  │ │   ├── form-data@0.2.0 </tspan>
<tspan x="10" y="666">  │ │   ├─┬ har-validator@1.8.0 </tspan>
<tspan x="10" y="682">  │ │   │ ├── bluebird@2.11.0 </tspan>
<tspan x="10" y="698">  │ │   │ ├─┬ chalk@1.1.3 </tspan>
<tspan x="10" y="714">  │ │   │ │ ├── ansi-styles@2.2.1 </tspan>
<tspan x="10" y="730">  │ │   │ │ ├── escape-string-regexp@1.0.5 </tspan>
<tspan x="10" y="746">  │ │   │ │ ├─┬ has-ansi@2.0.0 </tspan>
<tspan x="10" y="762">  │ │   │ │ │ └── ansi-regex@2.1.1 </tspan>
<tspan x="10" y="778">  │ │   │ │ ├── strip-ansi@3.0.1 </tspan>
<tspan x="10" y="794">  │ │   │ │ └── supports-color@2.0.0 </tspan>
<tspan x="10" y="810">  │ │   │ ├─┬ commander@2.9.0 </tspan>
<tspan x="10" y="826">  │ │   │ │ └── graceful-readlink@1.0.1 </tspan>
<tspan x="10" y="842">  │ │   │ └─┬ is-my-json-valid@2.16.0 </tspan>
<tspan x="10" y="858">  │ │   │   ├── generate-function@2.0.0 </tspan>
<tspan x="10" y="874">  │ │   │   ├─┬ generate-object-property@1.2.0 </tspan>
<tspan x="10" y="890">  │ │   │   │ └── is-property@1.0.2 </tspan>
<tspan x="10" y="906">  │ │   │   ├── jsonpointer@4.0.1 </tspan>
<tspan x="10" y="922">  │ │   │   └── xtend@4.0.1 </tspan>
<tspan x="10" y="938">  │ │   ├── hawk@2.3.1 </tspan>
<tspan x="10" y="954">  │ │   ├─┬ mime-types@2.0.14 </tspan>
<tspan x="10" y="970">  │ │   │ └── mime-db@1.12.0 </tspan>
<tspan x="10" y="986">  │ │   ├── oauth-sign@0.6.0 </tspan>
<tspan x="10" y="1002">  │ │   └── qs@2.4.2 </tspan>
<tspan x="10" y="1018">  │ ├─┬ request@2.81.0 </tspan>
<tspan x="10" y="1034">  │ │ ├── aws-sign2@0.6.0 </tspan>
<tspan x="10" y="1050">  │ │ ├── aws4@1.6.0 </tspan>
<tspan x="10" y="1066">  │ │ ├── caseless@0.12.0 </tspan>
<tspan x="10" y="1082">  │ │ ├─┬ combined-stream@1.0.5 </tspan>
<tspan x="10" y="1098">  │ │ │ └── delayed-stream@1.0.0 </tspan>
<tspan x="10" y="1114">  │ │ ├── extend@3.0.0 </tspan>
<tspan x="10" y="1130">  │ │ ├── forever-agent@0.6.1 </tspan>
<tspan x="10" y="1146">  │ │ ├─┬ form-data@2.1.4 </tspan>
<tspan x="10" y="1162">  │ │ │ └── asynckit@0.4.0 </tspan>
<tspan x="10" y="1178">  │ │ ├─┬ har-validator@4.2.1 </tspan>
<tspan x="10" y="1194">  │ │ │ ├─┬ ajv@4.11.7 </tspan>
<tspan x="10" y="1210">  │ │ │ │ ├── co@4.6.0 </tspan>
<tspan x="10" y="1226">  │ │ │ │ └─┬ json-stable-stringify@1.0.1 </tspan>
<tspan x="10" y="1242">  │ │ │ │   └── jsonify@0.0.0 </tspan>
<tspan x="10" y="1258">  │ │ │ └── har-schema@1.0.5 </tspan>
<tspan x="10" y="1274">  │ │ ├─┬ hawk@3.1.3 </tspan>
<tspan x="10" y="1290">  │ │ │ ├── boom@2.10.1 </tspan>
<tspan x="10" y="1306">  │ │ │ ├── cryptiles@2.0.5 </tspan>
<tspan x="10" y="1322">  │ │ │ ├── hoek@2.16.3 </tspan>
<tspan x="10" y="1338">  │ │ │ └── sntp@1.0.9 </tspan>
<tspan x="10" y="1354">  │ │ ├─┬ http-signature@1.1.1 </tspan>
<tspan x="10" y="1370">  │ │ │ ├── assert-plus@0.2.0 </tspan>
<tspan x="10" y="1386">  │ │ │ ├─┬ jsprim@1.4.0 </tspan>
<tspan x="10" y="1402">  │ │ │ │ ├── assert-plus@1.0.0 </tspan>
<tspan x="10" y="1418">  │ │ │ │ ├── extsprintf@1.0.2 </tspan>
<tspan x="10" y="1434">  │ │ │ │ ├── json-schema@0.2.3 </tspan>
<tspan x="10" y="1450">  │ │ │ │ └── verror@1.3.6 </tspan>
<tspan x="10" y="1466">  │ │ │ └─┬ sshpk@1.13.0 </tspan>
<tspan x="10" y="1482">  │ │ │   ├── asn1@0.2.3 </tspan>
<tspan x="10" y="1498">  │ │ │   ├── assert-plus@1.0.0 </tspan>
<tspan x="10" y="1514">  │ │ │   ├── bcrypt-pbkdf@1.0.1 </tspan>
<tspan x="10" y="1530">  │ │ │   ├─┬ dashdash@1.14.1 </tspan>
<tspan x="10" y="1546">  │ │ │   │ └── assert-plus@1.0.0 </tspan>
<tspan x="10" y="1562">  │ │ │   ├── ecc-jsbn@0.1.1 </tspan>
<tspan x="10" y="1578">  │ │ │   ├─┬ getpass@0.1.6 </tspan>
<tspan x="10" y="1594">  │ │ │   │ └── assert-plus@1.0.0 </tspan>
<tspan x="10" y="1610">  │ │ │   ├── jodid25519@1.0.2 </tspan>
<tspan x="10" y="1626">  │ │ │   ├── jsbn@0.1.1 </tspan>
<tspan x="10" y="1642">  │ │ │   └── tweetnacl@0.14.5 </tspan>
<tspan x="10" y="1658">  │ │ ├── is-typedarray@1.0.0 </tspan>
<tspan x="10" y="1674">  │ │ ├── isstream@0.1.2 </tspan>
<tspan x="10" y="1690">  │ │ ├─┬ mime-types@2.1.15 </tspan>
<tspan x="10" y="1706">  │ │ │ └── mime-db@1.27.0 </tspan>
<tspan x="10" y="1722">  │ │ ├── oauth-sign@0.8.2 </tspan>
<tspan x="10" y="1738">  │ │ ├── performance-now@0.2.0 </tspan>
<tspan x="10" y="1754">  │ │ ├── qs@6.4.0 </tspan>
<tspan x="10" y="1770">  │ │ ├── safe-buffer@5.0.1 </tspan>
<tspan x="10" y="1786">  │ │ ├── tunnel-agent@0.6.0 </tspan>
<tspan x="10" y="1802">  │ │ └── uuid@3.0.1 </tspan>
<tspan x="10" y="1818">  │ └── underscore@1.8.3 </tspan>
<tspan x="10" y="1834">  ├─┬ request@2.45.0 </tspan>
<tspan x="10" y="1850">  │ ├── aws-sign2@0.5.0 </tspan>
<tspan x="10" y="1866">  │ ├─┬ bl@0.9.5 </tspan>
<tspan x="10" y="1882">  │ │ └─┬ readable-stream@1.0.34 </tspan>
<tspan x="10" y="1898">  │ │   ├── core-util-is@1.0.2 </tspan>
<tspan x="10" y="1914">  │ │   ├── inherits@2.0.3 </tspan>
<tspan x="10" y="1930">  │ │   ├── isarray@0.0.1 </tspan>
<tspan x="10" y="1946">  │ │   └── string_decoder@0.10.31 </tspan>
<tspan x="10" y="1962">  │ ├── caseless@0.6.0 </tspan>
<tspan x="10" y="1978">  │ ├── forever-agent@0.5.2 </tspan>
<tspan x="10" y="1994">  │ ├─┬ form-data@0.1.4 </tspan>
<tspan x="10" y="2010">  │ │ ├── async@0.9.2 </tspan>
<tspan x="10" y="2026">  │ │ ├─┬ combined-stream@0.0.7 </tspan>
<tspan x="10" y="2042">  │ │ │ └── delayed-stream@0.0.5 </tspan>
<tspan x="10" y="2058">  │ │ └── mime@1.2.11 </tspan>
<tspan x="10" y="2074">  │ ├─┬ hawk@1.1.1 </tspan>
<tspan x="10" y="2090">  │ │ ├── boom@0.4.2 </tspan>
<tspan x="10" y="2106">  │ │ ├── cryptiles@0.2.2 </tspan>
<tspan x="10" y="2122">  │ │ ├── hoek@0.9.1 </tspan>
<tspan x="10" y="2138">  │ │ └── sntp@0.2.4 </tspan>
<tspan x="10" y="2154">  │ ├─┬ http-signature@0.10.1 </tspan>
<tspan x="10" y="2170">  │ │ ├── asn1@0.1.11 </tspan>
<tspan x="10" y="2186">  │ │ ├── assert-plus@0.1.5 </tspan>
<tspan x="10" y="2202">  │ │ └── ctype@0.5.3 </tspan>
<tspan x="10" y="2218">  │ ├── json-stringify-safe@5.0.1 </tspan>
<tspan x="10" y="2234">  │ ├── mime-types@1.0.2 </tspan>
<tspan x="10" y="2250">  │ ├── node-uuid@1.4.8 </tspan>
<tspan x="10" y="2266">  │ ├── oauth-sign@0.4.0 </tspan>
<tspan x="10" y="2282">  │ ├── qs@1.2.2 </tspan>
<tspan x="10" y="2298">  │ ├── stringstream@0.0.5 </tspan>
<tspan x="10" y="2314">  │ ├─┬ tough-cookie@2.3.2 </tspan>
<tspan x="10" y="2330">  │ │ └── punycode@1.4.1 </tspan>
<tspan x="10" y="2346">  │ └── tunnel-agent@0.4.3 </tspan>
<tspan x="10" y="2362">  ├── stream-reduce@1.0.3 </tspan>
<tspan x="10" y="2378">  └── through@2.3.8</tspan>
</text>
</svg>
